<svg width="16" height="18" viewBox="0 0 16 18" fill="none" xmlns="http://www.w3.org/2000/svg">
<path d="M15.9167 4C15.9166 4.20411 15.8417 4.40111 15.7061 4.55364C15.5704 4.70617 15.3835 4.80362 15.1808 4.8275L15.0833 4.83333H14.3792L13.3533 15.2667C13.2975 15.8328 13.0331 16.3579 12.6115 16.7399C12.1899 17.1219 11.6414 17.3334 11.0725 17.3333H4.92749C4.35862 17.3334 3.81006 17.1219 3.3885 16.7399C2.96693 16.3579 2.70251 15.8328 2.64666 15.2667L1.62083 4.83333H0.916662C0.695648 4.83333 0.483686 4.74554 0.327406 4.58926C0.171126 4.43298 0.0833282 4.22101 0.0833282 4C0.0833282 3.77899 0.171126 3.56702 0.327406 3.41074C0.483686 3.25446 0.695648 3.16667 0.916662 3.16667H5.08333C5.08333 2.78364 5.15877 2.40437 5.30535 2.05051C5.45192 1.69664 5.66676 1.37511 5.9376 1.10427C6.20844 0.833434 6.52997 0.618594 6.88383 0.472018C7.2377 0.325442 7.61697 0.25 7.99999 0.25C8.38302 0.25 8.76229 0.325442 9.11615 0.472018C9.47002 0.618594 9.79155 0.833434 10.0624 1.10427C10.3332 1.37511 10.5481 1.69664 10.6946 2.05051C10.8412 2.40437 10.9167 2.78364 10.9167 3.16667H15.0833C15.3043 3.16667 15.5163 3.25446 15.6726 3.41074C15.8289 3.56702 15.9167 3.77899 15.9167 4ZM9.87499 6.70833C9.72396 6.70834 9.57804 6.76304 9.46422 6.86231C9.3504 6.96158 9.27637 7.09871 9.25583 7.24833L9.24999 7.33333V13.1667L9.25583 13.2517C9.27641 13.4013 9.35046 13.5383 9.46428 13.6376C9.5781 13.7368 9.72399 13.7915 9.87499 13.7915C10.026 13.7915 10.1719 13.7368 10.2857 13.6376C10.3995 13.5383 10.4736 13.4013 10.4942 13.2517L10.5 13.1667V7.33333L10.4942 7.24833C10.4736 7.09871 10.3996 6.96158 10.2858 6.86231C10.1719 6.76304 10.026 6.70834 9.87499 6.70833ZM6.12499 6.70833C5.97396 6.70834 5.82804 6.76304 5.71422 6.86231C5.6004 6.96158 5.52637 7.09871 5.50583 7.24833L5.49999 7.33333V13.1667L5.50583 13.2517C5.52641 13.4013 5.60046 13.5383 5.71428 13.6376C5.8281 13.7368 5.97399 13.7915 6.12499 13.7915C6.276 13.7915 6.42189 13.7368 6.53571 13.6376C6.64953 13.5383 6.72358 13.4013 6.74416 13.2517L6.74999 13.1667V7.33333L6.74416 7.24833C6.72362 7.09871 6.64959 6.96158 6.53577 6.86231C6.42195 6.76304 6.27603 6.70834 6.12499 6.70833ZM7.99999 1.91667C7.66847 1.91667 7.35053 2.04836 7.11611 2.28278C6.88169 2.5172 6.74999 2.83515 6.74999 3.16667H9.24999C9.24999 2.83515 9.1183 2.5172 8.88388 2.28278C8.64946 2.04836 8.33152 1.91667 7.99999 1.91667Z" fill="#A8ACBC"/>
</svg>
